<?xml version="1.0" encoding="utf-8"?>
<!-- Generator: Adobe Illustrator 30.5.1, SVG Export Plug-In . SVG Version: 9.03 Build 0)  -->
<svg version="1.1" id="Logo_Horizontal_copy" xmlns="http://www.w3.org/2000/svg" xmlns:xlink="http://www.w3.org/1999/xlink"
	 x="0px" y="0px" viewBox="0 0 1920 1080" style="enable-background:new 0 0 1920 1080;" xml:space="preserve">
<style type="text/css">
	.st0{enable-background:new    ;}
	.st1{fill:#767260;}
</style>
<g class="st0">
	<path class="st1" d="M923.0478516,621.8847656c0-4.9296875,1.0332031-9.5478516,3.1025391-13.8544922
		c2.0678711-4.3056641,5.0854492-7.7773438,9.0522461-10.4130859c3.9658203-2.6347656,8.6411133-3.9521484,14.0253906-3.9521484
		c4.25,0,8.1171875,0.8642578,11.6020508,2.5927734c3.4853516,1.7285156,6.3886719,4.1220703,8.7128906,7.1826172
		c2.3222656,3.0595703,3.9658203,6.5166016,4.9296875,10.3691406l0.2548828,1.0205078h-7.9902344l-0.1699219-0.5947266
		c-1.2470703-3.9658203-3.4140625-7.1962891-6.5019531-9.6904297c-3.0893555-2.4931641-6.7294922-3.7402344-10.9223633-3.7402344
		c-3.7402344,0-6.9995117,1.0068359-9.7753906,3.0175781c-2.7768555,2.0126953-4.887207,4.6191406-6.3325195,7.8203125
		c-1.4448242,3.2021484-2.1674805,6.5878906-2.1674805,10.1572266c0,3.5703125,0.7226562,6.9697266,2.1674805,10.2001953
		c1.4453125,3.2304688,3.5556641,5.8515625,6.3325195,7.8623047c2.7758789,2.0126953,6.0351562,3.0175781,9.7753906,3.0175781
		c4.1928711,0,7.8330078-1.2324219,10.9223633-3.6972656c3.0878906-2.4648438,5.2548828-5.6806641,6.5019531-9.6474609
		l0.1699219-0.5947266h7.9902344L974.4726562,629.875c-1.4746094,6.0068359-4.4492188,10.8945312-8.9248047,14.6621094
		c-4.4775391,3.7695312-9.9169922,5.6533203-16.3198242,5.6533203c-5.3842773,0-10.0595703-1.3310547-14.0253906-3.9951172
		c-3.9667969-2.6630859-6.984375-6.1484375-9.0522461-10.4550781
		C924.0810547,631.4345703,923.0478516,626.8154297,923.0478516,621.8847656z"/>
	<path class="st1" d="M1010.7675781,621.8847656c0-4.9296875,1.0332031-9.5478516,3.1025391-13.8544922
		c2.0673828-4.3056641,5.0849609-7.7773438,9.0517578-10.4130859c3.9658203-2.6347656,8.6416016-3.9521484,14.0253906-3.9521484
		c5.3828125,0,10.0576172,1.3173828,14.0253906,3.9521484c3.9658203,2.6357422,6.9970703,6.1074219,9.0947266,10.4130859
		c2.0957031,4.3066406,3.1445312,8.9248047,3.1445312,13.8544922c0,4.9306641-1.0488281,9.5625-3.1445312,13.8974609
		c-2.0976562,4.3349609-5.1289062,7.8203125-9.0947266,10.4550781c-3.9677734,2.6347656-8.6425781,3.953125-14.0253906,3.953125
		c-5.3837891,0-10.0595703-1.3310547-14.0253906-3.9951172c-3.9667969-2.6630859-6.984375-6.1484375-9.0517578-10.4550781
		C1011.8007812,631.4345703,1010.7675781,626.8154297,1010.7675781,621.8847656z M1055.4775391,621.8847656
		c0-3.6259766-0.7373047-7.0546875-2.2099609-10.2851562c-1.4746094-3.2294922-3.6123047-5.8349609-6.4179688-7.8193359
		c-2.8046875-1.9833984-6.1064453-2.9755859-9.9023438-2.9755859c-3.796875,0-7.0839844,0.9921875-9.8603516,2.9755859
		c-2.7763672,1.984375-4.8867188,4.5898438-6.3320312,7.8193359c-1.4453125,3.2304688-2.1679688,6.6308594-2.1679688,10.2001953
		c0,3.6269531,0.7226562,7.0556641,2.1679688,10.2851562c1.4453125,3.2304688,3.5556641,5.8369141,6.3320312,7.8203125
		c2.7763672,1.984375,6.0634766,2.9746094,9.8603516,2.9746094c3.7958984,0,7.0976562-0.9902344,9.9023438-2.9746094
		c2.8056641-1.9833984,4.9433594-4.5751953,6.4179688-7.7773438
		C1054.7402344,628.9267578,1055.4775391,625.5117188,1055.4775391,621.8847656z"/>
	<path class="st1" d="M1101.8867188,649v-54.2304688h36.9746094c3.0605469,0,5.6806641,0.6953125,7.8632812,2.0830078
		c2.1806641,1.3896484,3.8095703,3.2441406,4.8867188,5.5673828c1.0761719,2.3242188,1.6152344,4.8740234,1.6152344,7.6503906
		c0,3.9667969-1.0625,7.4091797-3.1875,10.3271484c-2.125,2.9189453-5.2568359,4.4921875-9.3925781,4.7177734l-2.4648438,0.0849609
		L1151.8662109,649h-8.0742188l-13.515625-23.7998047h-21.1650391V649H1101.8867188z M1109.1113281,618.5703125h29.75
		c2.3798828,0,4.1650391-0.7783203,5.3554688-2.3378906c1.1894531-1.5576172,1.7851562-3.5830078,1.7851562-6.0771484
		c0-2.4365234-0.6103516-4.4902344-1.828125-6.1630859c-1.21875-1.6708984-2.9892578-2.5068359-5.3125-2.5068359h-29.75V618.5703125
		z"/>
	<path class="st1" d="M1192.3261719,649v-54.2304688h36.9746094c3.0605469,0,5.6806641,0.6953125,7.8632812,2.0830078
		c2.1806641,1.3896484,3.8095703,3.2441406,4.8867188,5.5673828c1.0761719,2.3242188,1.6152344,4.8740234,1.6152344,7.6503906
		c0,4.3066406-1.2470703,7.9042969-3.7402344,10.7949219c-2.4941406,2.8896484-6.0341797,4.3349609-10.625,4.3349609h-29.75V649
		H1192.3261719z M1199.5507812,618.5703125h29.75c2.3798828,0,4.1650391-0.7783203,5.3554688-2.3378906
		c1.1894531-1.5576172,1.7851562-3.5830078,1.7851562-6.0771484c0-2.4365234-0.6103516-4.4902344-1.828125-6.1630859
		c-1.21875-1.6708984-2.9892578-2.5068359-5.3125-2.5068359h-29.75V618.5703125z"/>
	<path class="st1" d="M1278.8554688,621.8847656c0-4.9296875,1.0332031-9.5478516,3.1025391-13.8544922
		c2.0683594-4.3056641,5.0859375-7.7773438,9.0527344-10.4130859c3.9658203-2.6347656,8.640625-3.9521484,14.0253906-3.9521484
		c5.3828125,0,10.0576172,1.3173828,14.0244141,3.9521484c3.9658203,2.6357422,6.9980469,6.1074219,9.0947266,10.4130859
		c2.0966797,4.3066406,3.1455078,8.9248047,3.1455078,13.8544922c0,4.9306641-1.0488281,9.5625-3.1455078,13.8974609
		s-5.1289062,7.8203125-9.0947266,10.4550781c-3.9667969,2.6347656-8.6416016,3.953125-14.0244141,3.953125
		c-5.3847656,0-10.0595703-1.3310547-14.0253906-3.9951172c-3.9667969-2.6630859-6.984375-6.1484375-9.0527344-10.4550781
		C1279.8886719,631.4345703,1278.8554688,626.8154297,1278.8554688,621.8847656z M1323.5654297,621.8847656
		c0-3.6259766-0.7373047-7.0546875-2.2099609-10.2851562c-1.4736328-3.2294922-3.6123047-5.8349609-6.4169922-7.8193359
		c-2.8056641-1.9833984-6.1074219-2.9755859-9.9023438-2.9755859c-3.7978516,0-7.0849609,0.9921875-9.8603516,2.9755859
		c-2.7773438,1.984375-4.8876953,4.5898438-6.3330078,7.8193359c-1.4443359,3.2304688-2.1669922,6.6308594-2.1669922,10.2001953
		c0,3.6269531,0.7226562,7.0556641,2.1669922,10.2851562c1.4453125,3.2304688,3.5556641,5.8369141,6.3330078,7.8203125
		c2.7753906,1.984375,6.0625,2.9746094,9.8603516,2.9746094c3.7949219,0,7.0966797-0.9902344,9.9023438-2.9746094
		c2.8046875-1.9833984,4.9433594-4.5751953,6.4169922-7.7773438
		C1322.828125,628.9267578,1323.5654297,625.5117188,1323.5654297,621.8847656z"/>
	<path class="st1" d="M1369.9755859,649v-54.2304688h36.9746094c3.0605469,0,5.6806641,0.6953125,7.8632812,2.0830078
		c2.1806641,1.3896484,3.8095703,3.2441406,4.8867188,5.5673828c1.0761719,2.3242188,1.6152344,4.8740234,1.6152344,7.6503906
		c0,3.9667969-1.0625,7.4091797-3.1875,10.3271484c-2.125,2.9189453-5.2568359,4.4921875-9.3925781,4.7177734l-2.4648438,0.0849609
		L1419.9550781,649h-8.0742188l-13.515625-23.7998047h-21.1650391V649H1369.9755859z M1377.2001953,618.5703125h29.75
		c2.3798828,0,4.1650391-0.7783203,5.3554688-2.3378906c1.1894531-1.5576172,1.7851562-3.5830078,1.7851562-6.0771484
		c0-2.4365234-0.6103516-4.4902344-1.828125-6.1630859c-1.21875-1.6708984-2.9892578-2.5068359-5.3125-2.5068359h-29.75V618.5703125
		z"/>
	<path class="st1" d="M1455.6552734,649l23.375-54.5703125h7.6494141L1510.8203125,649H1503l-6.2900391-14.4501953h-27.2851562
		L1463.3046875,649H1455.6552734z M1471.8046875,627.9199219H1494.5l-11.6445312-26.3496094L1471.8046875,627.9199219z"/>
	<path class="st1" d="M1558.3349609,601.4853516h-21.5048828v-6.7158203h50.3203125v6.7158203h-21.5898438V649h-7.2255859
		V601.4853516z"/>
	<path class="st1" d="M1624.71875,594.7695312h49.1298828v6.7158203h-41.9052734v17.0849609h31.1953125v6.6298828h-31.1953125
		v17.1699219h41.9052734V649H1624.71875V594.7695312z"/>
</g>
<g>
	<polygon class="st1" points="498.5389099,444.8998108 513.3389282,444.8998108 513.3389282,505.8998108 567.6389771,444.8998108 
		579.3389282,444.8998108 526.0389404,505.0998535 585.1389771,549.4998779 564.9389648,549.4998779 513.3389282,512.7998657 
		513.3389282,549.4998779 498.5389099,549.4998779 	"/>
	<polygon class="st1" points="623.5389404,444.8998108 688.7389526,444.8998108 688.7389526,453.2998657 638.3389282,453.2998657 
		638.3389282,502.5998535 681.2389526,502.5998535 681.2389526,510.9998779 638.3389282,510.9998779 638.3389282,541.0998535 
		688.7389526,541.0998535 688.7389526,549.4998779 623.5389404,549.4998779 	"/>
	<polygon class="st1" points="813.2389526,523.1998291 813.2389526,444.8998108 821.8389282,444.8998108 821.8389282,549.4998779 
		812.9389648,549.4998779 748.3389282,469.2998657 748.3389282,549.4998779 739.7389526,549.4998779 739.7389526,444.8998108 
		747.5389404,444.8998108 	"/>
	<rect x="993.9389648" y="444.8998108" class="st1" width="14.7999878" height="104.5999451"/>
	<polygon class="st1" points="1146.638916,525.3998413 1146.638916,444.8998108 1155.2388916,444.8998108 1155.2388916,549.4998779 
		1146.3388672,549.4998779 1081.7388916,469.2998657 1081.7388916,549.4998779 1073.138916,549.4998779 1073.138916,444.8998108 
		1080.9388428,444.8998108 	"/>
	<polygon class="st1" points="1371.9388428,453.2998657 1335.3388672,453.2998657 1335.3388672,444.8998108 
		1423.4388428,444.8998108 1423.4388428,453.2998657 1386.8388672,453.2998657 1386.8388672,549.4998779 1371.9388428,549.4998779 	
		"/>
	<path class="st1" d="M1502.5389404,543.2998657c4.6999512,0,9.3000488-0.7999878,13.6999512-2.4000244
		c4.5-1.5999756,8.4000244-4.2000122,11.9000244-7.7000122s6.1999512-8,8.4000244-13.5
		c2.0999756-5.5,3.1999512-12.0999756,3.1999512-19.7999878s-1-15.3999939-3.0999756-21.5
		c-2-6.2000122-4.8000488-11.2999878-8.3000488-15.3999939s-7.5-7.2000122-12.0999756-9.2000122
		c-4.5999756-2.1000061-9.5999756-3.1000061-14.8000488-3.1000061s-9.4000244,0.7999878-13.9000244,2.3999939
		s-8.4000244,4.2000122-11.9000244,7.7000122s-6.1999512,8-8.4000244,13.5
		c-2.0999756,5.5-3.1999512,12.1000061-3.1999512,19.8000183s1,15.4000244,3.0999756,21.5
		c2,6.2000122,4.8000488,11.2999878,8.1999512,15.5c3.5,4.0999756,7.5,7.2000122,12.0999756,9.2999878
		s9.5999756,3.0999756,14.9000244,3.0999756l0.1999512-0.2000122L1502.5389404,543.2998657z M1502.138916,551.1998291
		c-7.1999512,0-14-1.2999878-20.4000244-3.9000244c-6.4000244-2.5999756-12-6.2999878-16.6999512-11
		s-8.5-10.4000244-11.3000488-17.0999756c-2.8000488-6.7000122-4.1999512-14.0999756-4.1999512-22.0999756
		s1.4000244-15.5,4.1999512-22.1000061c2.8000488-6.7000122,6.5-12.3999939,11.3000488-17.2000122
		c4.6999512-4.7999878,10.3000488-8.5,16.6999512-11c6.4000244-2.6000061,13.1999512-3.8999939,20.4000244-3.8999939
		s13.9000244,1.2999878,20.3000488,3.8999939s12,6.2999878,16.8000488,11c4.8000488,4.7999878,8.5999756,10.5,11.3000488,17.2000122
		c2.8000488,6.7000122,4.1999512,14.1000061,4.1999512,22.1000061s-1.4000244,15.5-4.1999512,22.0999756
		c-2.8000488,6.7000122-6.5999756,12.4000244-11.3000488,17.0999756c-4.8000488,4.7000122-10.4000244,8.4000244-16.8000488,11
		S1509.2390137,551.1998291,1502.138916,551.1998291z"/>
	<polygon class="st1" points="1671.5389404,525.3998413 1671.5389404,444.8998108 1680.138916,444.8998108 1680.138916,549.4998779 
		1671.138916,549.4998779 1606.5389404,469.2998657 1606.5389404,549.4998779 1597.9388428,549.4998779 1597.9388428,444.8998108 
		1605.8388672,444.8998108 	"/>
	<path class="st1" d="M937.7389526,509.0998535c-1.5999756-3.4000244-3.7999878-6.2999878-6.7000122-8.7999878
		s-6.2000122-4.7000122-10.0999756-6.5999756c-3.9000244-1.9000244-8.0999756-3.5999756-12.5999756-5.2000122l-7-2.5
		c-5.7999878-2.1000061-10.2000122-4.6000061-13-7.6000061c-2.9000244-2.8999939-4.2999878-6.8999939-4.2999878-11.8999939
		s0.5999756-5.1000061,1.7999878-7.2000122c1.2000122-2,2.7999878-3.7000122,4.7999878-5s4.2000122-2.2999878,6.5999756-3
		c2.4000244-0.6000061,1.5999756-0.5,6.2000122-1.1000061h1.5999756c8.0999756-0.8999939,17.7000122,1.6000061,21.5,11.8999939
		c0.7000122,1.8999939,1.5,3.7999878,2.2999878,5.7999878c1.7999878-0.2000122,3.2000122-0.2999878,4.5999756-0.3999939
		c-0.5999756-14.1000061-8.5-22.6000061-22.2999878-24.5c-4.2999878-0.6000061-8.2000122-0.2999878-12.2999878,0.6000061
		c-1.5,0.2999878-3,0.6000061-4.5,1.1000061c-4.0999756,1.2999878-7.7999878,3.1000061-11,5.5
		s-5.7000122,5.2999878-7.5999756,8.7999878c-1.9000244,3.5-2.7999878,7.5-2.7999878,12
		c0,7.2999878,2.2000122,13.2000122,6.5,17.8999939c4.2999878,4.5999756,10.4000244,8.2999878,18.2999878,11.0999756l7,2.5
		c3.7000122,1.2999878,7,2.5999756,9.9000244,3.9000244c3,1.2999878,5.5,2.7999878,7.5999756,4.4000244
		c2.0999756,1.7000122,3.7999878,3.5999756,4.9000244,5.9000244c1.0999756,2.2999878,1.7000122,5.0999756,1.7000122,8.4000244
		s-0.5999756,5.7000122-1.9000244,8.0999756c-1.2999878,2.2999878-3,4.2999878-5.2000122,5.7999878
		s-4.7999878,2.7999878-7.7000122,3.5999756c-3,0.7999878-6.2000122,1.2000122-9.7000122,1.2000122
		s-3.7999878,0-5.5999756-0.2999878l0,0c-0.9000244,0-1.9000244-0.2000122-2.7999878-0.2999878
		c-7.4000244-0.9000244-12.5-5.2999878-15.4000244-12.4000244c-1-2.4000244-1.7999878-4.7999878-2.7000122-7.2999878
		c-1.7999878,0-3.2999878,0.2000122-4.5999756,0.2000122c-0.2000122,12.4000244,6.0999756,22,16.9000244,25.5999756
		c9.7000122,3.2000122,19.5,3.2000122,29.2000122-0.2000122c3.5-1.2000122,6.7000122-3,9.4000244-5.2999878
		c0.2999878-0.2999878,0.7000122-0.5,1-0.7999878c3.2999878-2.5999756,5.7999878-5.7999878,7.7999878-9.5
		c1.9000244-3.7000122,2.9000244-7.7999878,2.9000244-12.2999878s-0.7999878-8.7000122-2.4000244-12.0999756h-0.2999878
		L937.7389526,509.0998535z"/>
	<path class="st1" d="M1300.4388428,502.5998535v45.5999756c-2.0999756,0.2000122-3.8000488,0.2999878-5.4000244,0.5
		c-2.0999756-3.4000244-4-6.4000244-6.1999512-10c-2.1999512,1.5-3.6999512,2.4000244-5.0999756,3.5
		c-14.4000244,11.7999878-47.8000488,13.4000244-64.6999512-8.7000122c-5.6999512-7.4000244-9-15.7000122-10.4000244-24.5999756
		c-2.1999512-14.7000122-0.8000488-28.8999939,6.4000244-42.2999878c13-24.1000061,40.0999756-28.7999878,59.5999756-22.3999939
		c13.6999512,4.5,20.9000244,14.2000122,23.5,28.2999878c-2.3000488,0.1000061-4.0999756,0.2000122-5.9000244,0.2999878
		c-0.5999756-1.2999878-1.1999512-2.2000122-1.5-3.2000122c-3.9000244-12.6000061-14.5-20-30.9000244-19.8999939
		c-15.0999756,0-25.5999756,7.1000061-30.3000488,21c-5.5,16.3999939-5.3000488,33.2000122-1.0999756,49.9000244
		c2.6999512,10.5,8.6999512,19,20.4000244,21.5999756c13,2.7999878,24.9000244,0.5999756,34.6999512-9v-22.5999756
		c-5.8000488-0.2000122-11.0999756-0.5-17.1999512-0.7000122c-0.1999512-2.4000244-0.3000488-4.5-0.5-7.2000122h34.5999756
		V502.5998535z"/>
</g>
<path id="Icon" class="st1" d="M295.7015991,428.099884c-3.8999939,0-5.1000061,2-5.1000061,2
	c0,0.2000122,1.2000122,0.2999878,1.2999878,0.7999878c0.1000061,0.7999878,0.5,1.8999939,1.5,1.7999878
	c6.2999878-0.2999878,6.7999878-2.8999939,6.7999878-2.8999939s-0.7000122-1.7999878-4.6000061-1.7999878h0.1000061
	L295.7015991,428.099884z M402.0015869,470.4998779c5.2999878-1.2000122,8.7000122-2.7999878,8.7000122-2.7999878
	c18.3999939-8.7999878,21.6000061-21,20.2000122-34.2999878c-8.1000061,11.1000061-19.6000061,14.6000061-28,15.2000122
	c-1.6000061,0.1000061-4.7000122,0-8.6000061-1.2000122c-2-0.7000122-3.7999878-2-3.7999878-2s7.6000061,0.5,13.3999939-0.7999878
	c11.8999939-2,27.5-11.2000122,27.5-39c-9,11.7000122-23.2000122,18.5-31.6000061,21.7000122c0,0-4.7000122,1.7000122-9.2000122,2
	h-3.2999878c10.7999878-3.5,25.5-12.7000122,25.7999878-19c0.2999878-6.3999939-12-4.3999939-12-4.3999939
	c9.7999878,7.2999878-16.6000061,7.6000061-25.1000061,18.6000061c-9.2999878,12,0.2000122,13.8999939-3.1000061,41.1000061
	c-3.2000122,26.2999878-21.2000122,38.8999939-39.7999878,42.7000122c-2,0.2999878-5,0.6000061-7.8999939,0.2999878
	c-0.6000061-17.2999878,6.7999878-22.1000061,6.7999878-22.1000061c1.5-1.1000061,5.7000122-1.6000061,7.7000122,1.1000061
	c2.6000061,3.5,0.7000122,8.7000122-4,12.3999939c24.5-5.2999878,19.7999878-32,19.7999878-32
	c2.2000122,2.2000122,4.7999878,7.5,2,17.7000122c10.7999878-10.3999939,7.1000061-27.7999878,5.1000061-34.8999939
	c3.1000061,2.8999939,3.5,6.6000061,3.5,6.6000061c3.5-16.1000061-3.2999878-24.1000061-7.7000122-26.2999878
	c3.7000122,0.2000122,6.6000061,4.2000122,6.6000061,4.2000122C364.8015747,429.5999756,355.7015991,418.5,348.2015991,416.5
	c1.7999878-0.3999939,4.6000061-0.7000122,9.5,1.7999878c-16.5-12.6000061-24-9.2999878-26.7000122-7.5
	c0-0.7000122,0-3.1000061,4.3999939-5.1000061c-17.8999939-0.8999939-26.2000122,10.3999939-26.2000122,10.3999939
	s2.2000122-6.7999878,11.7000122-10.3999939c-14.2999878,2.2000122-20.1000061,11.2999878-20.1000061,11.2999878
	l-4.2000122,1.2999878c0,0-5,1.2000122-7.6000061,5.2000122c-3.5,5.2999878-5.7000122,6.7999878-9.8999939,8.7999878
	c-4.3999939,2.1000061-4.7999878,2.5-9.5,4.3999939c-2,0.7999878,1.3999939,5.7999878,4.1000061,7.7000122
	c1,0.7000122,0.8999939,0.7999878,0.7000122,0.8999939c-3.7999878,6,1,8.7999878,1,8.7999878
	s-0.3999939,5.2999878,3.1000061,6.6000061c4.8999939,1.7999878,6.3999939,3.7999878,7.1000061,5.2999878
	c0.7999878-0.7000122,1.3999939-1.2000122,2.2000122-1.7000122c1.5-1.2000122,8.3999939-4.7000122,16.6000061-5.1000061
	c6.7000122-0.2999878,7.2000122,2.7999878,5.3999939,2.7999878s-3.2999878-0.2999878-9.8999939,1.3999939
	c0,0-10,3.2000122-15.5,11.6000061c-11.5-7.2999878-30.7000122-24.2999878-34.3999939-48.7999878c0,0-0.5-2.2000122,0.3999939-4
	s4.2999878-2.1000061,5.7999878-2c2.1000061,0.1000061,16.7000122-3,18.7999878-14.5h-5
	c0,0-0.3999939,5.2000122-4.7999878,6.2999878c2.2000122-3.2999878,2.6000061-4.6000061,2.6000061-6.2999878h-5.5
	c0,0-1.5,6.3999939-5.7999878,6.2000122c3.2000122-3.2000122,2.7999878-6.2999878,2.7999878-6.2999878h-6.2000122
	c0,0-2,6.1000061-3.1000061,7.1000061s-1.7000122-1-1.1000061-2.5s1.8999939-4.6000061,1.8999939-4.6000061h-6.1999969
	c0,0-3.6000061,8.7999878-3,12.7000122c0.6999969,4-3.5-3,0-12.7000122h-6.8999939c0,0-1.1999969,38.8999939,12.9000092,63.3999939
	c0,0,0.8999939-6.2000122,1.2999878-5.7000122s4.1000061,15.2000122,12.3999939,23.6000061s14.7000122,13.8999939,13.3999939,17.5
	c0,0-0.3999939,2.2000122-6.6000061-0.7000122c-6.2000122-2.8999939-20.1000061-9.1000061-21.6000061-10.3999939
	s-1.1000061-3.2999878-0.8999939-5.5s0-18.2000122-10.8999939-23.5v3.2000122c0,0.3999939,4.1000061,2.7999878,5.6999969,7.1000061
	c0.1000061,0.2999878-0.3000031,0.5-0.5,0.2999878c-2.1999969-2.7999878-5.1999969-4.8999939-5.1999969-4.5v2.6000061
	c0,0.2000122,3.8000031,3.2000122,5.5,7.3999939c0.1000061,0.2999878-0.3000031,0.6000061-0.5,0.2999878
	c-2.3999939-3-5-4.6000061-5-4.3999939v2.2000122c0.8999939,0.7000122,4.1000061,4.1000061,5.6000061,7.3999939
	c0.1000061,0.2999878-0.3000031,0.6000061-0.5,0.2999878c-2.1999969-2.6000061-5.1000061-4.7999878-5.1000061-4.3999939v16.5
	c0,0,7.6000061,12.2999878,9.6000061,13.2000122s9.1000061,4.4000244,18.1000061,4.2000122
	c-2.8999939,1.7999878-9,2.9000244-9,2.9000244s8.8999939,6.7999878,25.1000061,12.5999756
	c0.7000122,1,3.2000122,4.2999878,4,5.2999878c1.5,1.9000244,9,9.7000122,11.7000122,12.4000244
	c-4.2000122,0.4000244-8.5,4.4000244-8.5,4.4000244c-1.7999878,1.7999878-3.6000061,4.7999878-4.5,9.5999756
	c-2.5,13.4000244,8.1000061,17.2000122,6.7999878,30.4000244c-1.2999878,13.2000122-9.8999939,13.4000244-10.5,13.5
	c-0.6000061,0,0.2000122-1.4000244-7.1000061-8.9000244c-7.2999878-7.5-22.8999939-8.7999878-29.1999969-5.2999878
	c0.1999969,1.5,2.8999939,6.4000244,2.8999939,6.4000244s2.9000092-4.4000244,10.3000031-3.7000122
	c-6.3999939,2.5999756-8,7.2999878-8,7.2999878s0.2000122,0.2999878,3.2000122,5.5
	C253.8016052,602.3999634,255.8016052,601,261.5015869,603c-7.7000122-0.2000122-9.1000061,9-9.1000061,9l3.5,5.2000122
	c0.7999878-4.7999878,4.6000061-7.5,8.6000061-6.7000122c-8,5.5-5.2000122,10.4000244-5.2000122,10.4000244
	S262.0015869,625.3000488,280.4015808,641c-0.2999878-4.0999756,0.2999878-8.2999878,1.7000122-12.2999878
	c0.2000122-0.5,0.3999939-1,0.7000122-1.5c0.1000061-0.2999878,0.2999878-0.5,0.3999939-0.7999878
	c1.6000061-2.5999756,3.7999878-4,5.6000061-3.2999878c2.7000122,1.2000122,1.6000061,4.5999756-0.2999878,5.5999756
	c-0.2999878,0.2000122-0.3999939,0.2999878,0,0.4000244c3.7000122,0,6.8999939-4.2000122,5.7999878-7.7999878l0,0
	c-1.1000061-5.5-0.5-10.2000122,5-14.5c0.2000122-0.2000122,0.3999939-0.2999878,0.6000061-0.5
	c5.6000061-4,11.3999939-1.5999756,13-0.5c0,0-0.2000122-1-0.3999939-2.5c-0.3999939-3-0.8999939-8.0999756,0-12.7000122
	c1-3.5999756,2.7999878-6.9000244,5-9.7000122l0,0c0,0,1.3999939-2.0999756,4.7000122-4.2999878
	c2.2999878-1.5999756,5.2999878,0,3.2999878,2.2000122c-1.2000122,1.4000244-2.2000122,3.5-2.5,3.7999878l0,0
	c-3.2000122,5.2000122-4.7999878,12.2000122-0.7000122,20.5c1.6000061,3.2000122,3.1000061,5.5999756,4.6000061,7.4000244
	c3.7999878,5.2999878,12.2000122,15.2000122,7.6000061,22.9000244c-2.2999878,3.9000244-9.1000061,2.5999756-8.8999939-0.9000244
	c-1.5,6.4000244,5.8999939,12.5,12,10.4000244c2.1000061-0.7000122,3.2000122-1.7000122,3.8999939-2.5999756
	c-0.1000061,5-0.2999878,7-0.8999939,8.0999756c-0.2000122,0.2999878-0.5,0.5999756-1,0.7999878
	c-0.8999939,0.2999878-2.3999939,0-4.2999878-0.5999756c-2.8999939-1-6.7000122-2.5999756-11.1000061-2.5999756
	c0,0-17.7000122-3-22.5,10.5c0,0.2000122-0.2000122,0.5-0.2000122,0.5h0.2000122
	c4.2000122,2.5999756,7.2999878,4.7999878,7.2999878,4.7999878h0.1000061v-0.2000122c0,0,0.7000122-3.7999878,3.8999939-6.5999756
	c2.2000122-1.9000244,5.5-3.4000244,10.3999939-3c-3.2999878,1.2999878-5.5,2.4000244-7,3.5
	c-3.3999939,2.2999878-3.7000122,4.5-4.7000122,8.2999878c5.7000122,3.0999756,7,4.0999756,7,4.0999756l0,0v-0.4000244
	c0.1000061,0,1.1000061-3.7000122,3.3999939-6.5c1.6000061-1.9000244,3.7999878-3.2999878,6.7000122-2.7999878
	c-0.6000061,0.2999878-1.1000061,0.7000122-1.6000061,1.2000122c-3.8999939,3.0999756-5,8.2000122-5.2999878,10.0999756
	l8.3999939,4.4000244h0.2000122v-0.2000122c0,0,0.1000061-5.5,3.6000061-8.2999878
	c0.8999939-0.7000122,2-1.2000122,3.3999939-1.4000244c-4.3999939,4.9000244-3.1000061,9.2999878-1.5,10.4000244
	c21.3999939-11.7000122,30.7000122-18.2999878,33.2000122-20.2000122c0.7000122-0.5,1-0.7999878,1-0.7999878
	s-14.6000061-29.9000244,7.5-61.5999756v-0.2000122c0.1000061,0,0.6000061-0.7999878,0.8999939-1.2000122h-1.7999878
	c-10.5-0.4000244-11.2999878-5.5999756-11.5-6.2000122l0,0c0.2000122-2.2999878,1-4.5,1.1000061-5
	c0.8999939,0.7000122,2.6000061,2.2000122,4.3999939,3.2000122c16.5,8.2000122,29.8999939,5.7999878,40,0.2999878
	c5.6000061-3.0999756,12.8999939-9,17.1000061-22.5999756c0.7000122-2.2000122,2-8.7000122,2-14.4000244
	c0-14.2000122-0.1000061-20.4000244-0.2000122-31.4000244c0-8.5-0.2000122-14.8999939-0.2000122-14.8999939s-2.5,4.7000122-6.5,11
	c-4.6000061,7.1000061-7,10.3999939-6.1000061,15.4999695c0.8999939,5,6.8999939,6.4000244,6.8999939,6.7999878
	c0.5,13.9000244-0.7999878,22.0999756-2.2000122,26.2999878c-1.5,4.5-4,10.2999878-11.2999878,15.0999756
	c-6,4-24.3999939,12.4000244-42.8999939-7.7000122c-0.6000061-0.5999756-0.8999939-1-1.5-1.5999756
	c-0.2999878-1.0999756-1-3.2000122-1.3999939-4c-3.7999878-6.7000122-7.5-9.2999878-10.2000122-10.7999878
	c-3.5-2-13.3999939-5.5-17.5-10.7999878c-0.8999939-1.0999756-1.7000122-2.2999878-2.5-3.5l0,0
	c-2.7000122-4.5999756-1.2000122-5-0.5-4.5999756c0.5,0.2000122,2.1000061,2.7999878,6.3999939,5.9000244
	c6.1000061,4.2999878,10.7999878,5.5999756,15.8999939,7.2999878h0.3999939c0,0-1.8999939-9.5,7-12.5
	c0,0-5.6000061-1.2999878-8.3999939-3.4000244c-3.2000122-2.2999878-4.6000061-5.7999878-4.6000061-5.7999878
	s4.5,3.2000122,11,4.4000244c2.7999878,0.7000122,6,0.7999878,9.2999878,0l0,0c0.2999878,0,0.6000061,0,0.8999939-0.2000122
	c3.6000061-1.0999756,7.5-3.2000122,11.5-6.7999878c-2.7999878-0.4000244-5.6000061-1.2999878-8-2.2999878
	c-0.7999878-0.5-4.3999939-2.7999878-6.7000122-4.7000122c-2.6000061-2.2000122-3.2000122-3.2999878-3.2000122-3.2999878
	s9.3999939,4.2000122,14.7000122,4.7999878c10.6000061,2.2000122,20-6.2999878,23.8999939-13.2999878
	c-5.5-0.2000122-10.1000061-1.7999878-16.7000122-6.2000122c-1.1000061-0.7000122-2.2000122-2.1000061-2.2000122-2.1000061
	s7.2999878,1.2000122,11.2999878,0.7999878c17.2999878-1.6000061,31.3999939-18.3999939,31-29.7000122
	c-6.8999939,5.1000061-13.1000061,7.8999939-21.7000122,9.3999939c0,0-5.2999878,1.1000061-12.1000061-0.5
	c-1.6000061-0.3999939-2.7999878-1.1000061-2.7000122-1.2000122c1.1000061,0,6.1000061,0,11.7000122-1.1000061l-0.5-0.2000122
	L402.0015869,470.4998779z M287.5015869,458.099884c-0.3999939,1.7000122-1.7000122,3.3999939-1.7000122,3.3999939
	s-9-3.7000122-8.5-7c0,0,3.1000061,1.7999878,9,0.3999939c-0.3999939,0,1.6000061,1.1000061,1.1000061,3.2000122H287.5015869z
	 M312.5015869,425.099884c-0.7999878,0-2.5,0-3,0.1000061c-2,0.2000122-2.7999878,1.2000122-3.5,2.6000061
	c0,0.2000122-0.8999939,1.7999878-1.1000061,2c-1.2999878,1.8999939-2.3999939,3.1000061-4.7000122,4.1000061
	c-5.7000122,2.6000061-11.8999939-0.3999939-8.7000122,8.3999939c0.1000061,0.5,0.2000122,1-0.6000061,2
	c-1.6000061,2-5.2999878,2.7999878-5.2999878,2.7999878c2.6000061,0.8999939,5.2000122-0.7999878,5.8999939-1.1000061
	c0.2000122,0,0.2999878,0,0.3999939,0.2000122c0,0.2000122-0.2999878,0.6000061-0.2999878,0.6000061
	c-1.1000061,0.8999939-2.6000061,1.7999878-4.2999878,2.5c-3.2000122,1.1000061-7.7000122,1-7.7000122,1
	s5.1000061,2.2000122,10.3999939,0c-0.6000061,0.3999939-1.5,0.8999939-2.7000122,1.2999878
	c-2.7000122,1-6.2999878,1.7000122-9.3999939,0.6000061c-3.5-1.2999878-2.8999939-3.3999939-1.5-6.2999878
	c0.8999939-1.2000122,3.3999939-3.7999878,2.6000061-4.2999878c-1.2000122-0.7999878-2.5-0.6000061-3.7999878-1
	s-2.3999939-1.2000122-3.2999878-1.8999939l-0.7000122-0.7000122c3.5-1.2999878,9.6000061-3.8999939,13.7999878-6.3999939
	c1.8999939-1.2000122,4.2000122-4.2999878,5.7000122-6.6000061c1.7000122-2.6000061,4.7999878-3.6000061,5.7999878-3.8999939
	c4.2000122-1.3999939,13.7999878-2.7000122,15-3.7999878c8.3999939-9.8999939,17.7000122-7.6000061,17.7000122-7.6000061
	c-4.7999878,14.1000061-9.8999939,14.7999878-16.7999878,15.3999939h0.1000061V425.099884z M363.101593,531.6998901
	c-0.6000061,0.2000122-1.2000122,0.2999878-1.7999878,0.5C362.3016052,531.9998779,362.9016113,531.7998657,363.101593,531.6998901z
	 M316.0015869,418.1998901c-3.2999878,5.2999878-8.1000061,5.7000122-8.1000061,5.7000122
	c1.1000061,0.2000122,2.2000122,0.1000061,3.2000122,0c11.2000122-0.7000122,13-6.7000122,15.7999878-12
	c-2.6000061,0-7.6000061,0.8999939-10.8999939,6.2000122l0,0V418.1998901z"/>
</svg>
